<?xml version="1.0" encoding="UTF-8"?>
<svg id="Capa_1" data-name="Capa 1" xmlns="http://www.w3.org/2000/svg" xmlns:xlink="http://www.w3.org/1999/xlink" viewBox="0 0 1080 1080">
  <defs>
    <style>
      .cls-1 {
        fill: url(#Degradado_sin_nombre_14-2);
      }

      .cls-2 {
        fill: #00b500;
      }

      .cls-3 {
        fill: url(#Degradado_sin_nombre_14-5);
      }

      .cls-4 {
        fill: url(#Degradado_sin_nombre_9);
      }

      .cls-5 {
        fill: url(#Degradado_sin_nombre_14-8);
      }

      .cls-6 {
        fill: url(#Degradado_sin_nombre_14-6);
      }

      .cls-7 {
        fill: url(#Degradado_sin_nombre_14-7);
      }

      .cls-8 {
        fill: url(#Degradado_sin_nombre_14);
      }

      .cls-9 {
        fill: url(#Degradado_sin_nombre_14-4);
      }

      .cls-10 {
        fill: url(#Degradado_sin_nombre_14-3);
      }
    </style>
    <linearGradient id="Degradado_sin_nombre_9" data-name="Degradado sin nombre 9" x1="489.54" y1="783.01" x2="489.54" y2="592.2" gradientUnits="userSpaceOnUse">
      <stop offset="0" stop-color="#3fa9f5"/>
      <stop offset="0" stop-color="#3da7f3"/>
      <stop offset=".11" stop-color="#278cdd"/>
      <stop offset=".22" stop-color="#1578cb"/>
      <stop offset=".34" stop-color="#0969bf"/>
      <stop offset=".49" stop-color="#0260b8"/>
      <stop offset=".72" stop-color="#005eb6"/>
    </linearGradient>
    <linearGradient id="Degradado_sin_nombre_14" data-name="Degradado sin nombre 14" x1="747.97" y1="188.89" x2="747.97" y2="344.16" gradientUnits="userSpaceOnUse">
      <stop offset="0" stop-color="#3fa9f5"/>
      <stop offset=".48" stop-color="#005eb6"/>
    </linearGradient>
    <linearGradient id="Degradado_sin_nombre_14-2" data-name="Degradado sin nombre 14" x1="769.42" y1="190.49" x2="769.42" y2="331.1" xlink:href="#Degradado_sin_nombre_14"/>
    <linearGradient id="Degradado_sin_nombre_14-3" data-name="Degradado sin nombre 14" x1="778.73" y1="242.7" x2="778.73" y2="271.79" xlink:href="#Degradado_sin_nombre_14"/>
    <linearGradient id="Degradado_sin_nombre_14-4" data-name="Degradado sin nombre 14" x1="805.62" y1="236.59" x2="805.62" y2="246.98" xlink:href="#Degradado_sin_nombre_14"/>
    <linearGradient id="Degradado_sin_nombre_14-5" data-name="Degradado sin nombre 14" x1="680.3" y1="294.3" x2="680.3" y2="318.56" xlink:href="#Degradado_sin_nombre_14"/>
    <linearGradient id="Degradado_sin_nombre_14-6" data-name="Degradado sin nombre 14" x1="654.69" y1="307.92" x2="654.69" y2="331.14" gradientTransform="translate(72.24 -118.04) rotate(10.9)" xlink:href="#Degradado_sin_nombre_14"/>
    <linearGradient id="Degradado_sin_nombre_14-7" data-name="Degradado sin nombre 14" x1="645.99" y1="330.18" x2="645.99" y2="363.13" xlink:href="#Degradado_sin_nombre_14"/>
    <linearGradient id="Degradado_sin_nombre_14-8" data-name="Degradado sin nombre 14" x1="489.54" y1="337.65" x2="489.54" y2="528.46" xlink:href="#Degradado_sin_nombre_14"/>
  </defs>
  <g>
    <path class="cls-2" d="M267.49,562.13c-.68-15.61,8.28-28.25,21.1-29.75,7.8-.73,14.05,3.33,18.11,11.79-2.74,4.15-5.46,8.15-8.17,11.98-2.42-4.77-5.26-7.4-8.82-7.4-5.55.07-9.11,5.67-8.81,14.25.29,8.58,4.18,14.6,9.66,15.57,3.53.59,6.19-1.52,8.38-5.84,2.88,4.31,5.75,8.8,8.61,13.44-3.67,7.56-9.54,10.31-17.16,8.34-12.5-3.56-22.21-16.76-22.89-32.38Z"/>
    <path class="cls-2" d="M308.48,563.82c-2.2-21.54,5.69-39.06,18.67-41.79,12.99-2.67,23.75,14.67,25.45,41.17,1.7,26.49-6.18,44.5-18.66,42.26-12.49-2.28-23.26-20.09-25.46-41.64ZM339.31,563.38c-.96-12.92-5.49-20.29-10.39-19.77-4.91.53-8.21,8.11-7.15,20.02,1.06,11.91,5.58,19.5,10.39,19.88,4.81.38,8.1-7.2,7.14-20.12Z"/>
    <path class="cls-2" d="M394.67,616.55c-.76-16.37-1.51-32.71-2.26-49.01-2.25,13.08-4.45,25.93-6.6,38.55-1.9-.18-3.8-.36-5.7-.55-3.4-12.42-6.85-24.57-10.34-36.42.84,14.87,1.68,29.78,2.52,44.74-3.92-.51-7.84-1.05-11.76-1.61-2.08-32.84-4.14-65.42-6.2-97.71,3.68-.61,7.37-1.21,11.06-1.78,5.35,17.13,10.61,35.03,15.77,53.58,3.2-18.57,6.5-37.66,9.9-57.21,3.69-.47,7.39-.91,11.08-1.34,1.42,36.52,2.84,73.17,4.27,109.96-3.91-.38-7.82-.78-11.73-1.2Z"/>
    <path class="cls-2" d="M409.84,607.82c1.07-8.72,2.16-17.49,3.26-26.33,3.86,6.12,8.83,10.24,13.08,10.38,3.69.13,4.96-2.06,4.86-5.87-.37-13.9-21.46-3.36-22.92-43.3-.73-19.83,4.92-36.79,17.36-37.99,5.38-.47,11.01,2.29,15.3,8.66-1.16,9.24-2.31,18.44-3.45,27.61-4.01-5.49-7.76-8.01-11.21-7.85-3.9.19-5.05,3.39-4.94,7.15.37,13.18,21.89,1.4,22.67,43.09.38,20.68-5.21,37.87-17,36.92-6.37-.48-12.94-5.59-17.02-12.48Z"/>
    <path class="cls-2" d="M479.95,588.79c.04,9.77.07,19.54.11,29.32-10.57-.1-21.15-.4-31.72-.87-.68-37.78-1.35-75.53-2.02-113.24,10.85-.62,21.7-1.01,32.56-1.16.04,9.77.08,19.54.12,29.31-6.35.05-12.71.14-19.06.28.06,4.47.11,8.93.16,13.4,5.55-.08,11.1-.13,16.64-.16.05,9.33.09,18.65.14,27.98-5.48,0-10.96-.02-16.45-.04.06,5.01.12,10.02.18,15.04,6.44.08,12.88.14,19.32.17Z"/>
    <path class="cls-2" d="M501.54,589.1c-1.18,0-2.36.01-3.53.02-.04,9.66-.08,19.32-.12,28.98-4.29.04-8.58.06-12.86.04-.06-38.46-.12-76.91-.18-115.37,6.43-.03,12.86.02,19.29.15,11.19.28,18.06,17.28,17.65,43.61-.23,16.44-3.09,28.82-7.81,35.91,2.58,11.76,5.12,23.47,7.62,35.1-4.58.17-9.16.3-13.74.4-2.08-9.58-4.19-19.2-6.32-28.84ZM503.09,532.84c-1.62-.02-3.24-.03-4.86-.04-.04,9-.07,18.01-.11,27.01,1.6,0,3.21,0,4.81,0,3.64,0,5.41-5.08,5.48-13.44.07-8.37-1.64-13.49-5.32-13.53Z"/>
    <path class="cls-2" d="M570.26,507.23c-6.9,35.14-13.56,71.55-19.97,108.8-4.22.29-8.44.55-12.66.78-4.56-37.17-9.39-75-14.5-113.24,4.84.23,9.69.5,14.53.82,2.74,22.11,5.38,44.02,7.94,65.7,3.72-21.7,7.51-43.12,11.39-64.17,4.42.4,8.84.84,13.26,1.32Z"/>
    <path class="cls-2" d="M571.57,507.38c4.49.49,8.99,1.02,13.48,1.58-1.47,34.7-2.97,69.54-4.46,104.53-4.3.43-8.6.82-12.89,1.2,1.3-35.88,2.59-71.65,3.87-107.31Z"/>
    <path class="cls-2" d="M604.61,586.05c-1.18.06-2.36.12-3.54.18-.45,8.38-.89,16.78-1.34,25.19-4.3.51-8.61.98-12.91,1.44,1.59-34.51,3.17-68.86,4.74-103.05,6.41.85,12.82,1.77,19.23,2.76,11.14,1.91,17.3,16.56,15.83,37.83-.9,13.35-4.26,23.45-9.28,29.53,2.1,9.71,4.18,19.2,6.21,28.45-4.6.63-9.21,1.24-13.81,1.82-1.69-7.91-3.41-15.96-5.14-24.15ZM608.51,537.89c-1.62-.13-3.23-.26-4.85-.39-.41,7.76-.82,15.54-1.24,23.33,1.6.03,3.2.06,4.81.08,3.63.05,5.62-4.21,6.04-11.25.42-7.03-1.08-11.46-4.75-11.78Z"/>
    <path class="cls-2" d="M661.49,582.3c-.58,6.2-1.16,12.41-1.74,18.65-10.74,2.31-21.46,4.61-32.14,6.86,2.15-30.76,4.29-61.23,6.42-91.4,10.74,2.73,21.45,5.51,32.14,8.3-.57,6.01-1.14,12.04-1.7,18.09-6.33-.69-12.65-1.37-18.99-2.01-.27,3.38-.54,6.77-.81,10.16,5.54.35,11.08.71,16.61,1.07-.6,6.56-1.21,13.14-1.81,19.75-5.49.12-10.99.23-16.48.34-.3,3.83-.6,7.66-.91,11.5,6.46-.42,12.93-.85,19.4-1.3Z"/>
    <path class="cls-2" d="M671.76,526.15c6.98,1.99,13.96,3.96,20.92,5.88,2.61.84,6.5,2.55,9.97,5.89,8.94,8.55,7.62,20.54,7.13,25.58-.46,4.55-1.03,10.42-5.74,16.91-3.85,5.33-8.47,8.52-11.38,10.51-11.74,8.23-22.9,8.8-27.45,8.25,2.2-24.62,4.38-48.96,6.55-73.01ZM684.36,579.98c6-.41,10.84-6.53,12.14-16.93,1.3-10.39-2.17-16.67-8.26-17.57-2.03-.27-4.06-.54-6.09-.81-1.27,11.78-2.54,23.66-3.8,35.64,2-.11,4-.21,6.01-.32Z"/>
  </g>
  <path class="cls-4" d="M602.89,626.72c-11.83,2.88-23.42,5.41-34.74,7.63.59-4.21,1.12-8.5,1.62-12.81-5.6.61-11.38,1.19-17.35,1.71-.58,4.63-1.2,9.21-1.89,13.71-19.25,2.45-39.48,3.72-60.18,3.72-.27,0-.53,0-.8,0h0s-.02,0-.02,0-.02,0-.02,0h0c-.27,0-.53,0-.8,0-20.7,0-40.92-1.27-60.18-3.72-.68-4.5-1.31-9.08-1.89-13.71-5.97-.52-11.75-1.1-17.35-1.71.5,4.31,1.03,8.59,1.62,12.81-11.32-2.22-22.91-4.75-34.74-7.63-39.5-9.62-75.32-21.63-107.3-34.52,8.13,46.42,29.69,89.09,62.71,123.06,41.86,43.07,97.25,67.04,156.22,67.71.57,0,1.13.02,1.7.03h0s.02,0,.02,0c0,0,.02,0,.02,0h0c.57,0,1.13-.02,1.7-.03,58.97-.67,114.36-24.65,156.22-67.71,33.02-33.97,54.58-76.65,62.71-123.06-31.98,12.89-67.8,24.9-107.3,34.52ZM564.81,655.13c22.51-3.52,43.61-8.65,62.49-15.26-5.16,15.46-11.62,29.9-19.16,43.08-16.36,8.66-34.91,16.37-55.59,21.89,4.89-15.13,9-31.84,12.27-49.72ZM488.72,660.74c.27,0,.55,0,.82,0,.27,0,.55,0,.82,0,19.36,0,38.35-1.09,56.58-3.19-3.23,16.27-7.21,31.39-11.89,45-.8,2.33-1.62,4.59-2.44,6.79-12.56,2.31-25.8,3.79-39.72,4.2-1.12.03-2.23.04-3.35.06-1.11-.02-2.22-.03-3.35-.06-13.92-.41-27.16-1.89-39.72-4.2-.83-2.2-1.65-4.46-2.44-6.79-4.68-13.61-8.66-28.73-11.89-45,18.23,2.1,37.22,3.19,56.58,3.19ZM414.26,655.13c3.26,17.88,7.38,34.58,12.27,49.72-20.68-5.53-39.24-13.23-55.59-21.89-7.54-13.18-14-27.62-19.16-43.08,18.88,6.61,39.98,11.73,62.49,15.26ZM289.97,610.31c5.48,3.56,11.56,7.19,18.25,10.73,8.1,4.29,15.82,7.78,22.96,10.63,3.2,11.81,7.11,23.24,11.68,34.21-15.21-8.79-33.95-23.05-47.56-45.69-2-3.33-3.77-6.63-5.33-9.88ZM311.44,658.72c8.15,7.15,17.15,14.22,27.11,20.98,5.27,3.58,10.5,6.86,15.65,9.87,4.69,8.62,9.84,16.85,15.45,24.63,5.2,7.22,10.69,13.9,16.43,20.04-30.71-18.26-56.46-44.33-74.63-75.53ZM385.9,705.56c18.78,8.01,34.73,12.4,45.16,14.85.36.09.73.16,1.09.24,5.5,14.01,11.63,25.76,18.24,35.09-24.46-9.16-46.51-26.66-64.49-50.18ZM489.54,761.54c-12.7-.55-25.55-13.69-36.62-36.95,10.81,1.62,21.77,2.62,32.86,2.94,1.25.04,2.5.05,3.74.07h0s.02,0,.02,0c0,0,.02,0,.02,0h0c1.24-.02,2.49-.04,3.74-.08,11.09-.33,22.04-1.32,32.86-2.94-11.06,23.26-23.92,36.4-36.62,36.95ZM528.67,755.73c6.61-9.33,12.74-21.08,18.24-35.09.36-.08.73-.16,1.09-.24,10.43-2.45,26.38-6.84,45.16-14.85-17.98,23.51-40.03,41.02-64.49,50.18ZM593,734.25c5.73-6.14,11.22-12.82,16.43-20.04,5.61-7.78,10.75-16.01,15.45-24.63,5.14-3.02,10.37-6.29,15.65-9.87,9.96-6.76,18.97-13.84,27.11-20.98-18.17,31.2-43.92,57.27-74.63,75.53ZM636.21,665.89c4.57-10.96,8.48-22.4,11.68-34.21,7.14-2.85,14.86-6.35,22.96-10.63,6.69-3.54,12.77-7.17,18.25-10.73-1.56,3.25-3.33,6.56-5.33,9.88-13.61,22.64-32.35,36.9-47.56,45.69Z"/>
  <g>
    <path class="cls-8" d="M745.48,281.96c-26.22-40.47-22.58-81.56-21.16-93.07-13.52,8.95-24.63,21.87-31.35,37.96-18.01,43.15,2.37,92.74,45.52,110.76,23.86,9.96,49.67,8.17,71.03-2.7-11.69-4.8-42.13-19.12-64.05-52.95Z"/>
    <path class="cls-1" d="M811.12,331.1c-10.7-8.36-24.11-21.01-35.58-39.15-.28-.45-2.67-4.77-6.11-10.59-2.13-3.6-3.91-6.55-5.12-8.52-4.09,2.45-8.99,1.16-10.82-1.82-2.06-3.34-.42-9.1,4.66-11.12-.48-.6-.96-1.2-1.43-1.81-12.16-15.69-23.4-37.38-28.56-67.59-1.02,12.94-1.8,44.96,16.63,78.96,21.38,39.44,55.03,56.5,66.34,61.65Z"/>
    <path class="cls-10" d="M757.54,263.35c-2.17,1.33-2.83,4.23-1.45,6.37,1.38,2.13,4.29,2.72,6.4,1.29,13.2-7.68,26.41-15.36,39.61-23.04-.29-.05-1.85-.36-2.88-1.85-1.05-1.53-.74-3.14-.68-3.41-13.67,6.88-27.33,13.76-41,20.65Z"/>
    <path class="cls-9" d="M803.62,246.58c2.65,1.11,5.69-.15,6.79-2.79,1.1-2.65-.15-5.69-2.79-6.79-2.65-1.11-5.69.15-6.79,2.79-1.11,2.65.15,5.69,2.79,6.79Z"/>
    <path class="cls-3" d="M696.81,306.53c-1.2-1.45-2.6-3.42-3.86-5.92-1.18-2.37-1.9-4.55-2.35-6.31-8.93,3.33-17.87,6.66-26.8,9.99,1.23.96,3.66,3.13,5.21,6.78,1.33,3.15,1.39,5.97,1.32,7.49,8.83-4.01,17.66-8.02,26.49-12.04Z"/>
    <circle class="cls-6" cx="654.69" cy="319.53" r="11.61" transform="translate(-48.61 129.57) rotate(-10.9)"/>
    <path class="cls-7" d="M656.63,333.84c-1.01.26-3.53.76-6.5-.22-2.79-.92-4.47-2.65-5.16-3.44l-9.63,29.18c4.43,1.25,8.86,2.51,13.29,3.76,2.67-9.76,5.33-19.52,8-29.28Z"/>
    <path class="cls-5" d="M642.33,400.28c2.6-11.3,5.2-22.59,7.8-33.89l-17.66-5.34c-2.57,7.97-5.13,15.94-7.7,23.9-38.28-30.15-84.67-46.71-133.52-47.27-.57,0-1.13-.02-1.7-.03h0s-.02,0-.02,0c0,0-.02,0-.02,0h0c-.57,0-1.13.02-1.7.03-58.97.67-114.36,24.65-156.22,67.71-33.02,33.97-54.58,76.65-62.71,123.06,31.98-12.89,67.8-24.9,107.3-34.52,11.83-2.88,23.42-5.41,34.74-7.63-.59,4.21-1.12,8.5-1.62,12.81,5.6-.61,11.38-1.19,17.35-1.71.58-4.63,1.2-9.21,1.89-13.71,19.25-2.45,39.48-3.72,60.18-3.72.27,0,.53,0,.8,0h0s.02,0,.02,0,.02,0,.02,0h0c.27,0,.53,0,.8,0,20.7,0,40.92,1.27,60.18,3.72.68,4.5,1.31,9.08,1.89,13.71,5.97.52,11.75,1.1,17.35,1.71-.5-4.31-1.03-8.59-1.62-12.81,11.32,2.22,22.91,4.75,34.74,7.63,39.5,9.62,75.32,21.63,107.3,34.52-8.13-46.42-29.69-89.09-62.71-123.06-1.69-1.74-3.41-3.44-5.15-5.11ZM489.54,359.12c12.7.55,25.55,13.69,36.62,36.95-10.81-1.62-21.77-2.62-32.86-2.94-1.25-.04-2.5-.05-3.74-.07h0s-.02,0-.02,0c0,0-.02,0-.02,0h0c-1.24.02-2.49.04-3.74.08-11.09.33-22.04,1.32-32.86,2.94,11.06-23.26,23.92-36.4,36.62-36.95ZM386.07,386.41c-5.73,6.14-11.22,12.82-16.43,20.04-5.61,7.78-10.75,16.01-15.45,24.63-5.14,3.02-10.37,6.29-15.65,9.87-9.96,6.76-18.97,13.84-27.11,20.98,18.17-31.2,43.92-57.27,74.63-75.53ZM331.19,488.98c-7.14,2.85-14.86,6.35-22.96,10.63-6.69,3.54-12.77,7.17-18.25,10.73,1.56-3.25,3.33-6.56,5.33-9.88,13.61-22.64,32.35-36.9,47.56-45.69-4.57,10.96-8.48,22.4-11.68,34.21ZM414.26,465.53c-22.51,3.52-43.61,8.65-62.49,15.26,5.16-15.46,11.62-29.9,19.16-43.08,16.36-8.66,34.91-16.37,55.59-21.89-4.89,15.13-9,31.84-12.27,49.72ZM385.9,415.1c17.98-23.51,40.03-41.02,64.49-50.18-6.61,9.33-12.74,21.08-18.24,35.09-.36.08-.73.16-1.09.24-10.43,2.45-26.38,6.84-45.16,14.85ZM490.35,459.92c-.27,0-.55,0-.82,0-.27,0-.55,0-.82,0-19.36,0-38.35,1.09-56.58,3.19,3.23-16.27,7.21-31.39,11.89-45,.8-2.33,1.62-4.59,2.44-6.79,12.56-2.31,25.8-3.79,39.72-4.2,1.12-.03,2.23-.04,3.35-.06,1.11.02,2.22.03,3.35.06,13.92.41,27.16,1.89,39.72,4.2.83,2.2,1.65,4.46,2.44,6.79,4.68,13.61,8.66,28.73,11.89,45-18.23-2.1-37.22-3.19-56.58-3.19ZM548.01,400.25c-.36-.09-.73-.16-1.09-.24-5.5-14.01-11.63-25.76-18.24-35.09,24.46,9.16,46.51,26.66,64.49,50.18-18.78-8.01-34.73-12.4-45.16-14.85ZM564.81,465.53c-3.26-17.88-7.38-34.58-12.27-49.72,20.68,5.53,39.24,13.23,55.59,21.89,7.54,13.18,14,27.62,19.16,43.08-18.88-6.61-39.98-11.73-62.49-15.26ZM689.1,510.35c-5.48-3.56-11.56-7.19-18.25-10.73-8.1-4.29-15.82-7.78-22.96-10.63-3.2-11.81-7.11-23.24-11.68-34.21,15.21,8.79,33.95,23.05,47.56,45.69,2,3.33,3.77,6.63,5.33,9.88ZM640.52,440.96c-5.27-3.58-10.5-6.86-15.65-9.87-4.69-8.62-9.84-16.85-15.45-24.63-5.2-7.22-10.69-13.9-16.43-20.04,30.71,18.26,56.46,44.33,74.63,75.53-8.15-7.15-17.15-14.22-27.11-20.98Z"/>
  </g>
</svg>