<?xml version="1.0" encoding="UTF-8"?>
<svg id="Capa_1" data-name="Capa 1" xmlns="http://www.w3.org/2000/svg" viewBox="0 0 935.15 320.83">
  <defs>
    <style>
      .cls-1 {
        fill: #fff;
      }

      .cls-2 {
        fill: #a20000;
      }

      .cls-3 {
        fill: #1460ff;
      }

      .cls-4 {
        fill: #ffa700;
      }
    </style>
  </defs>
  <g>
    <path class="cls-4" d="M96.11,219.57h-40.98l-11.14,18.7H15.24l61.75-96.27h26.82l23.24,96.27h-27.09l-3.85-18.7ZM91.98,199.49l-6.46-31.22-18.43,31.22h24.89Z"/>
    <path class="cls-4" d="M161.02,142h41.81c29.98,0,48.27,15.54,48.27,40.43,0,34.11-24.75,55.84-60.1,55.84h-49.23l19.25-96.27ZM191.83,216.54c20.35,0,31.77-14.03,31.77-32.46,0-12.79-8.11-20.35-23.79-20.35h-15.95l-10.45,52.81h18.43Z"/>
    <path class="cls-4" d="M361.26,172.95c0,24.34-18.57,40.16-47.58,40.16h-19.25l-4.95,25.17h-27.23l19.25-96.27h40.71c25.03,0,39.06,11.41,39.06,30.94ZM333.76,175.28c0-8.11-5.64-11.83-15.13-11.83h-14.3l-5.64,28.19h16.23c11.96,0,18.84-5.78,18.84-16.37Z"/>
    <path class="cls-4" d="M441.58,209.39l16.37,28.88h-28.47l-14.3-25.58h-13.75l-5.09,25.58h-27.23l19.25-96.27h41.12c24.62,0,38.78,11.41,38.78,30.67,0,17.74-9.9,30.94-26.68,36.72ZM425.63,163.46h-14.3l-5.78,28.19h16.23c11.96,0,18.98-5.78,18.98-16.37,0-8.11-5.78-11.83-15.13-11.83Z"/>
    <path class="cls-4" d="M481.88,197.84c0-33.42,24.75-57.76,60.1-57.76,29.57,0,47.86,17.47,47.86,42.36,0,33.42-24.75,57.76-60.1,57.76-29.57,0-47.86-17.47-47.86-42.36ZM562.34,184.08c0-12.79-8.25-21.45-22.69-21.45-18.84,0-30.26,15.4-30.26,33.56,0,12.79,8.25,21.45,22.69,21.45,18.84,0,30.26-15.4,30.26-33.56Z"/>
  </g>
  <path class="cls-3" d="M835.85,143.84c-1.29-1.52-1.85-3.52-1.54-5.49l5.42-33.69c.53-3.32,3.36-5.72,6.72-5.72h39.08c-3.5-7.11-12.09-11.91-23.14-11.91h-85.45l47.18-56.72c1.24.52,2.6.81,4.03.81,5.76,0,10.43-4.67,10.43-10.43s-4.67-10.43-10.43-10.43-10.43,4.67-10.43,10.43c0,3.46,1.69,6.51,4.28,8.41l-48.19,57.94h-23.64l-25.29-33.87c2.01-1.9,3.27-4.58,3.27-7.57,0-5.76-4.67-10.43-10.43-10.43s-10.43,4.67-10.43,10.43,4.67,10.43,10.43,10.43c1.91,0,3.69-.52,5.23-1.41l24.21,32.43h-80.84c-16.28,0-31.75,10.42-34.55,23.28l-33.65,154.79c-2.79,12.86,8.14,23.28,24.42,23.28h196.07c16.28,0,31.75-10.42,34.55-23.28l25.84-118.86h-37.97c-2,0-3.88-.87-5.18-2.39Z"/>
  <path class="cls-2" d="M909.02,142.63h-67.99c-1.97,0-3.46-1.76-3.15-3.7,1.81-11.23,3.61-22.46,5.42-33.69.25-1.55,1.58-2.69,3.15-2.69h67.63c1.95,0,3.45,1.74,3.16,3.67-1.69,11.23-3.37,22.46-5.06,33.69-.23,1.56-1.58,2.72-3.16,2.72Z"/>
  <g>
    <path class="cls-1" d="M870.56,112.15v20.86h-5.08v-8.59h-7.91v8.59h-5.08v-20.86h5.08v8.17h7.91v-8.17h5.08Z"/>
    <path class="cls-1" d="M889.29,113.46c1.65.87,2.92,2.1,3.82,3.67.9,1.58,1.35,3.39,1.35,5.45s-.45,3.85-1.35,5.44c-.9,1.59-2.18,2.81-3.83,3.68-1.66.87-3.57,1.31-5.75,1.31h-7.82v-20.86h7.82c2.2,0,4.12.44,5.77,1.31ZM887.68,127.04c1.07-1.05,1.6-2.54,1.6-4.46s-.53-3.42-1.6-4.49c-1.07-1.07-2.57-1.61-4.49-1.61h-2.41v12.13h2.41c1.92,0,3.42-.52,4.49-1.58Z"/>
  </g>
  <g>
    <path class="cls-1" d="M683.41,165.45h-26.95l3.25-15.88h73.38l-3.25,15.88h-26.83l-13.71,68.33h-19.49l13.59-68.33Z"/>
    <path class="cls-1" d="M828.98,149.57l-53.29,84.21h-19.13l-19.61-84.21h20.09l13.59,60.03,38.13-60.03h20.21Z"/>
  </g>
</svg>