<?xml version="1.0" encoding="UTF-8"?>
<svg id="Capa_1" data-name="Capa 1" xmlns="http://www.w3.org/2000/svg" viewBox="0 0 408.13 346.11">
  <defs>
    <style>
      .cls-1 {
        fill: #fff;
      }

      .cls-2 {
        fill: #a20000;
      }

      .cls-3 {
        fill: #1460ff;
      }
    </style>
  </defs>
  <path class="cls-3" d="M295.72,167.04c-1.57-1.84-2.25-4.27-1.87-6.66l6.58-40.87c.65-4.02,4.07-6.94,8.15-6.94h47.4c-4.25-8.62-14.66-14.45-28.07-14.45h-103.65l57.23-68.81c1.5.63,3.15.98,4.89.98,6.98,0,12.65-5.66,12.65-12.65s-5.66-12.65-12.65-12.65-12.65,5.66-12.65,12.65c0,4.19,2.05,7.89,5.19,10.2l-58.45,70.28h-28.68l-30.67-41.08c2.44-2.31,3.97-5.56,3.97-9.18,0-6.98-5.66-12.65-12.65-12.65s-12.65,5.66-12.65,12.65,5.66,12.65,12.65,12.65c2.31,0,4.47-.63,6.34-1.72l29.37,39.34h-98.06c-19.75,0-38.51,12.64-41.9,28.23L7.36,314.11c-3.39,15.59,9.87,28.24,29.63,28.24h237.83c19.75,0,38.51-12.64,41.9-28.24l31.34-144.17h-46.06c-2.42,0-4.71-1.06-6.28-2.9Z"/>
  <path class="cls-2" d="M384.48,165.56h-82.48c-2.38,0-4.2-2.13-3.82-4.49,2.19-13.62,4.38-27.25,6.58-40.87.3-1.88,1.92-3.26,3.82-3.26h82.03c2.37,0,4.18,2.11,3.83,4.45-2.04,13.62-4.09,27.25-6.13,40.87-.28,1.9-1.91,3.3-3.83,3.3Z"/>
  <g>
    <path class="cls-1" d="M337.83,128.6v25.31h-6.16v-10.42h-9.59v10.42h-6.16v-25.31h6.16v9.91h9.59v-9.91h6.16Z"/>
    <path class="cls-1" d="M360.54,130.18c2,1.06,3.54,2.54,4.63,4.45,1.09,1.91,1.64,4.12,1.64,6.62s-.55,4.67-1.64,6.6c-1.09,1.92-2.64,3.41-4.65,4.47-2.01,1.06-4.33,1.59-6.98,1.59h-9.48v-25.31h9.48c2.67,0,5,.53,6.99,1.59ZM358.6,146.66c1.3-1.27,1.95-3.08,1.95-5.41s-.65-4.15-1.95-5.44c-1.3-1.3-3.11-1.95-5.44-1.95h-2.92v14.71h2.92c2.33,0,4.14-.64,5.44-1.91Z"/>
  </g>
  <g>
    <path class="cls-1" d="M110.82,193.25h-32.69l3.94-19.26h89.01l-3.94,19.26h-32.54l-16.63,82.88h-23.64l16.49-82.88Z"/>
    <path class="cls-1" d="M287.39,173.99l-64.64,102.15h-23.2l-23.79-102.15h24.37l16.49,72.81,46.26-72.81h24.52Z"/>
  </g>
</svg>