<?xml version="1.0" encoding="UTF-8"?>
<svg id="Capa_1" data-name="Capa 1" xmlns="http://www.w3.org/2000/svg" viewBox="0 0 945.87 536.04">
  <defs>
    <style>
      .cls-1 {
        fill: #533173;
      }
    </style>
  </defs>
  <path class="cls-1" d="M147.92,10.15c6.79,1.74,13.87,1.9,20.79,3.29,52.88,10.61,92.25,58.73,91.61,112.72h-85.23c-2.25-25.25-22.58-41.99-48.16-33.93-23.55,7.42-27.92,31.66-5.78,45.24,52.79,32.38,134.44,40.3,141.62,120.14,12.08,134.28-185.03,173.22-234.03,53.64-4.55-11.11-6.76-22.86-9.29-34.53v-22.21h82.77c-1.82,31.54,19.56,51.11,51.15,46.79,24.78-3.39,35.42-33.89,12.49-49.29-17.77-11.94-46.74-21.13-66.94-31.84-23.42-12.42-54.26-29.92-67.75-53.26-6.55-11.33-9.25-23.13-11.71-35.81.51-7.6-.69-15.97,0-23.45C24.39,54.4,76.54,11.88,128.88,11.44l2.98-1.29h16.06Z"/>
  <path class="cls-1" d="M712.42,10.15v86.39c-23.39.93-48.6-1.92-71.71,1.78-4.75.76-13.81,4.12-17.29,7.41-2.26,2.13-7.35,12.2-7.35,14.87v25.3h79.05v82.69h-79.05v143.16h-87.7l-.05-246.26c3.48-56.56,34.22-98.21,90.21-111.03l23.48-4.31h70.41Z"/>
  <path class="cls-1" d="M360.38,145.9v132.67c0,2.38,3.24,10.16,4.7,12.58,9.37,15.42,34.12,17.35,48.83,8.83,4.1-2.37,14.4-13.18,14.4-17.7v-136.37h82.76v257.3c-3.86,59.77-48.82,101.81-108.09,105.52-63.87,3.99-117.73-41.71-124.13-104.89h84c5.2,29.07,51.2,34.46,62.86,7.89.51-1.16,2.6-6.73,2.6-7.27v-31.47c-56.61,25.66-121.91-.25-143.31-58.6-2.36-6.44-7.39-22.18-7.39-28.41v-140.07h82.76Z"/>
  <path class="cls-1" d="M795.18,145.9v128.96c0,.53,1.5,8.28,1.81,9.3,8.13,27.2,52.93,27.55,64.34,2.49.77-1.68,3.02-8.05,3.02-9.32v-131.43h81.52v264.72c0,40.65-40.59,81.61-77.82,92.55-74.78,21.97-144.52-22.75-154.4-99.34h83.38c2.8,3.71,3.58,8.44,6.26,12.26,11.28,16.15,42.62,17.46,54.19,1.23,1.03-1.45,5.64-10.68,5.64-11.64v-32.7c-62.23,28-130.37-5.41-146.9-71.05-1.04-4.12-3.8-14.91-3.8-18.42v-137.6h82.76Z"/>
</svg>