<?xml version="1.0" encoding="UTF-8"?>
<svg id="Capa_1" data-name="Capa 1" xmlns="http://www.w3.org/2000/svg" viewBox="0 0 1408.89 628.23">
  <defs>
    <style>
      .cls-1 {
        fill: #fff;
      }

      .cls-2 {
        fill: #1287c0;
      }
    </style>
  </defs>
  <path class="cls-2" d="M1394.88,291.25c-9.66-49.66-57.22-73.3-78.76-78.87-23.92-6.19-49.72-4.32-72.39,5.4-11.03,4.71-25.69,13.07-34.6,21.08-9.49-9.09-30.63-21.54-54.67-21.54-21.08.97-107.28,11.02-129.45,22.73-12.16-21.42-31.19-45.4-54.26-47.11-10.8-.85-21.37,3.52-27.84,12.33-9.03,12.33-8.36,29.04-5.51,47.33-32.9-32.96-106.83-35.12-153.88-35.46-44.72-.28-103.08,11.25-119.56,20.29,8.41-5.06,40.69-23.81,60.74-51.26,20.29,3.18,43.47-7.62,55.06-24.38,12.61-18.3,13.24-42.9,3.13-62.45-8.3-16.14-23.58-28.41-41.03-33.3-18.75-5.28-39.6-1.53-54.78,10.85-2.22-20.8-17.1-38.53-36.25-46.2-20.51-8.24-44.95-5.23-62.45,8.47-9.43,7.39-16.71,17.61-19.95,29.15-3.75,13.52-1.82,28.3,5.05,40.46-.06.06-.11.17-.17.23-17.56,15.57-33.19,38.87-31.59,63.36-41.59-41.31-90.64-74.16-136.15-97.68-46.26-23.87-134.56-60.46-225.59-62.51-26.82-.62-86.43,1.88-113.53,10C8.6,39.52,2.97,81.57,9.17,99.81c6.99,20.46,30.91,28.47,61.6,23.18,11.36-1.99,23.18-11.48,25.91-26.25,44.66-2.61,96.15,1.08,145.47,14.38-11.37,30.4-18.7,70.01-22.73,115.18-24.95,5.34-55.01,13.98-78.02,25.23-20.51,10.06-43.13,24.55-51.09,47.22-8.58,24.26,5.63,48.07,20.63,66.37,15.91,19.26,54.72,55.46,107.51,80.86,2.16,13.07,8.07,40.23,35.86,49.21,19.15,6.19,43.58,1.82,57.51-18.35,17.56,4.03,50.06,6.14,69.78,6.37l.06,27.5c0,34.1,27.73,62.05,61.83,62.05h697.12c8.75,18.24,26.54,39.95,46.94,43.98,36.65,7.22,41.03-26.82,42.96-37.56,2.05-11.25,3.75-22.5,7.33-33.41l26.82-89.84c23.41-3.58,50.01-14.6,68.98-28.47,18.58-13.58,34.72-30.63,46.48-50.4,15.28-25.81,21.93-56.32,14.77-85.81"/>
  <path class="cls-1" d="M898.75,258.18c23.13,1.71,78.64,103.02,85.07,101.2,4.15-1.14,4.54-10.69,4.54-15.97-.06-25.68-26.59-92.57-26.71-111.77,0-6.36,1.08-12.44,6.76-12.44,22.73-.06,61.77,71.94,62.05,130.81,0,25.63-15.85,65.18-42.9,65.23-24.94.17-69.78-92.28-77.9-92.28-11.02,0,3.18,101.15-24.32,101.2-18.53.06-22.84-16.65-22.9-41.59-.12-24.89,12.5-126.09,36.31-124.39M782.31,243.57c26.48-.11,73.3-.34,73.42,17.96.06,30.57-150.64,13.98-150.87,36.42-.12,6.76,32.62,8.3,63.07,10.8,40.57,3.47,87.17,9.04,87.28,58.19.06,20.29-17.33,59.5-86.43,59.66-70.01.23-95.01-35.74-95.07-50.97-.11-29.43,28.07-37.45,47.62-37.56,18.58,0,78.87,7.22,78.93,22.1.06,8.13-15.06,16.2-33.3,16.25-18.13.12-44.55-16.19-57.34-16.19-12.78.06-18.47,8.64-18.47,13.58s.74,15,34.95,14.89c16.59-.12,97.17-9.04,97.11-31.31,0-9.94-36.99-19.83-67.45-22.96-37.33-3.75-93.54,5.51-93.65-32.45-.17-55.97,100.36-58.36,120.19-58.41M766.46,126.01c-.57-9.09-4.15-18.13-10.51-24.61-11.19-11.36-24.32-15.28-35.51-13.98-11.31,1.3-21.34,7.87-27.04,17.73-2.56,4.43-3.81,9.55-4.03,14.66-.17,0-.34-.06-.51-.06-7.16-6.93-17.61-14.66-32.84-15.51,5.79-6.25,9.26-14.6,8.87-23.18-.51-10.68-6.82-20.29-15.68-26.03-16.59-10.74-40.97-7.84-53.36,8.07-6.71,8.64-8.69,20.11-4.71,30.46,3.58,9.38,11.53,16.42,20.8,20.06-28.07,13.64-44.84,38.87-44.78,54.78.06,16.14,12.1,44.15,60.69,45.01,28.41.51,70.92-27.33,83.25-54.83,4.03,2.27,8.46,3.75,13.07,4.15,10.85,1.93,22.44-.74,30.8-8.07,8.06-7.16,12.27-17.9,11.53-28.64ZM590.36,167.55c-4.54-13.64,13.98-30.86,43.41-35.74-16.03,9.38-32.39,22.62-43.41,35.74ZM631.36,187.97c-7.73,0-14.26-1.02-19.72-2.67,14.83-16.71,50.57-48.18,68.13-48.24,11.48-.06,13.47,9.04,13.47,12.56.06,21.03-43.24,38.3-61.88,38.36ZM158.22,38.55c-43.58,1.19-80.24,5.85-97.45,13.13-14.6,6.42-28.07,21.93-28.07,34.61-.28,12.1,13.86,13.13,22.45,13.07,8.58,0,16.42-.74,16.37-5.74,0-7.1-11.42-5.62-11.42-12.73,0-8.24,44.15-10.11,66.2-10.23,189.17-.51,407.09,130.53,407.43,241.67.23,86.37-112.23,105.75-174.16,105.92-22.05.06-43.42-2.27-63.76-6.19-.91-27.5-2.56-85.24-3.24-121.72,6.52-.11,13.03-.16,19.55-.17,45.97-.17,106.15,16.08,106.26,26.82,0,9.15-15.97,15.46-15.97,24.21.06,6.53,14.83,5.4,27.67,6.25,2.22.22,28.18-14.21,28.13-37.05-.12-30.23-38.24-65.75-166.38-65.75-1.19-33.98-6.36-87.62-25.63-87.51-16.02.06-20.69,59.04-22.05,91.66-69.1,10.4-130.58,38.53-130.53,66.26,0,22.61,49.44,79.72,129.44,114.44,1.37,25.63,6.25,43.25,29.04,43.07,16.48,0,22.16-12.1,23.87-24.89,25.86,6.59,53.93,10.4,83.64,10.34,116.04-.34,209.17-62.34,208.88-147.35-.28-113.93-230.19-277.76-430.27-272.13h0ZM242.47,397.64c-68.7-24.26-115.35-62.79-115.41-75.58-.06-19.89,60.29-27.39,116.09-30.17-.4,31.14-.74,75.8-.68,105.75ZM449.33,550.65c-12.28,0-29.78-6.31-34.32-19.89-3.69-11.08,1.7-22.73,15.97-34.66,32.22-26.99,51.14-31.65,63.98-32.68,15.68-1.25,21.99,8.7,23.13,14.09,1.08,5.05-2.16,10-7.16,11.08-4.71.96-9.38-1.76-10.8-6.19-.4-.23-1.48-.57-3.69-.4-10.12.79-25.29,4.77-53.53,28.41-9.26,7.73-10.74,12.73-10.17,14.43,1.08,3.18,8.58,6.76,14.94,7.1,13.52.68,67-2.33,77.91-6.02,4.89-1.65,10.17.91,11.82,5.8,1.65,4.88-.97,10.17-5.84,11.81,0,0,0,0,0,0-13.52,4.61-63.59,7.1-82.22,7.1M618.21,508.83l1.76,39.72c.24,5.13-3.73,9.48-8.86,9.71-.02,0-.04,0-.06,0h-.4c-4.94,0-9.09-3.86-9.32-8.86l-1.59-35.46c-9.05,2.59-18.09,5.24-27.1,7.95v22.9c0,5.12-4.15,9.32-9.32,9.32s-9.32-4.2-9.32-9.32v-17.33c-.91.28-1.82.57-2.67.79-.86.27-1.77.4-2.67.4-4.03,0-7.73-2.56-8.92-6.59-1.53-4.94,1.25-10.12,6.19-11.65,1.71-.51,4.54-1.36,8.07-2.44v-34.32c-.02-5.13,4.13-9.31,9.26-9.32.02,0,.04,0,.06,0,5.13-.02,9.3,4.13,9.32,9.26,0,.02,0,.04,0,.06v28.75c8.75-2.56,18.18-5.34,26.31-7.61l-1.31-29.38c-.23-5.11,3.75-9.49,8.87-9.72,5.11-.17,9.49,3.75,9.72,8.92l1.14,25.28c.57-.17,1.08-.22,1.48-.28,5.06-.79,10.23,2.67,10.63,7.79.39,6.02-2.96,10.11-11.26,11.42M605.76,350.8c.63-28.81,1.14-107.79,20.74-107.91,15.34,0,22.45,20.12,24.89,124.56,1.36,55.12-4.03,56.94-19.72,56.99-17.5.11-27.33-7.79-25.91-73.65M751.35,563.04c-5.28.51-8.98-2.22-10.34-6.14-.23-.68-.97-2.9-1.14-40.51-.17-41.08.63-43.87,7.39-46.6,7.45-3.13,12.05,2.78,19.04,11.76,4.49,5.68,10.17,13.3,16.14,21.31,5.45,7.33,12.62,16.82,18.18,23.92.23-15.46,2.44-61.54,2.95-65.85.62-5.11,5.23-8.7,10.4-8.13,5.11.62,8.75,5.28,8.13,10.4-.4,3.18-2.56,40-2.78,55.69-.12,15.97-.23,29.15-7.79,33.75-3.52,2.16-7.79,2.27-11.76.28-4.43-2.21-9.83-8.75-32.33-38.92-2.94-3.99-5.9-7.97-8.86-11.94-.17,19.55.28,46.15.57,50.86.46,4.26-2.44,9.54-7.78,10.11M914.89,551.73c-9.09,4.09-18.24-4.09-33.75-18.92l-1.36-1.31c-4.04-3.86-10.23-10.46-16.82-17.39-2.64-2.78-5.27-5.56-7.9-8.35.57,11.93,1.59,27.67,2.73,42.33.4,5.11-3.47,9.6-8.64,10h-.68c-4.83,0-8.92-3.69-9.32-8.58,0,0-1.19-16.02-2.16-32.11-1.93-33.36-2.27-39.38,6.19-41.93,7.05-2.1,9.49.57,33.36,25.86,6.14,6.48,12.44,13.18,16.14,16.7l1.36,1.31c2.59,2.51,5.22,4.97,7.9,7.39-1.47-16.42-4.2-42.5-5.85-57.62-.57-5.11,3.13-9.72,8.24-10.28,5.11-.51,9.77,3.18,10.29,8.3.28,2.5,6.59,61.03,7.05,72.17.33,8.3-4.61,11.42-6.77,12.45M1012.06,544.97c-9.32,6.25-29.43,4.32-49.49,6.25-9.66.91-16.99-.85-20.06-4.37-2.67-3.13-4.88-15.68-6.53-29.04-.17-.74-.34-1.54-.34-2.39v-.4c-1.93-16.88-3.07-34.15-3.07-34.44,0-4.37,1.99-7.27,3.64-8.87,4.6-4.54,11.19-4.6,22.44-4.43,11.42.22,38.01-1.36,41.42-1.71,4.43-.79,8.81,1.76,10.34,6.08,1.7,4.84-.84,10.15-5.68,11.86-.02,0-.04.01-.06.02-3.52,1.25-38.87,2.5-46.37,2.44-1.31-.06-4.15-.12-6.71-.06.4,4.83.57,6.94,1.42,14.61,15.17-.57,34.32-1.93,42.85-3.41,4.15-.68,8.86,3.41,8.98,8.58.17,3.98-2.67,8.07-7.73,9.03-12.84,2.5-28.3,3.29-41.93,3.8.45,3.52,1.53,12.45,1.93,14.72,8.41.8,23.92-1.14,45.92-5.34,5.05-.97,9.37-1.14,11.93,3.35,2.5,4.49,1.31,10.85-2.89,13.69M1039.67,460.7c5.06,0,9.32,4.04,9.38,9.15.06,2.5,1.08,58.13,1.19,67.62.29-.06.63-.11,1.02-.17,11.31-1.93,39.43-6.19,67.22-3.3,5.11.51,8.87,5.11,8.3,10.23-.51,5.11-5.11,8.87-10.23,8.3-25.8-2.67-51.82,1.31-62.17,3.18-11.76,2.1-22.78-2.95-22.78-17.16,0-3.41-.79-46.2-1.19-68.36-.06-5.18,4.15-9.5,9.26-9.5M1078.77,437.51c-31.48,1.02-42.85-33.19-42.9-48.58,0-10,9.55-33.98,12.73-45.69,1.02-3.92-4.26-8.86-3.97-12.1,1.36-13.87,21.37-15.34,23.07-20.35,1.65-4.54,6.02-19.21,5.28-23.18-.74-3.86-28.87-9.55-28.87-23.75-.06-15.11,60.06-14.89,106.38-19.89,26.99-3.01,48.87,22.27,47.05,28.35-1.76,6.14-7.05,9.95-14.2,11.76-4.37,1.08-62.17,2.67-70.8,6.25-4.26,1.76-6.93,19.38-4.94,22.84,2.21,3.52,40.28,3.58,46.31,4.14,12.1.97,15.8,27.33-3.75,28.47-6.88.4-48.81-.28-55.58,1.87-6.82,2.22-13.41,33.24-9.95,36.42,3.58,3.18,57.39-8.75,66.94-8.75s23.19,10.68,22.16,19.89c-.63,6.08-45.24,40.63-94.96,42.28M731.46,542.3c-6.59-13.18-12.33-24.32-17.33-33.81,1.19-2.04,1.59-4.49.97-6.99-1.02-4.04-4.55-6.71-8.47-6.99-21.54-38.98-26.25-38.87-31.2-38.7-6.25.17-11.76.45-26.93,58.13-4.6,1.76-7.62,2.95-8.07,3.12-4.78,1.84-7.15,7.21-5.31,11.99,0,.02.02.04.02.06,1.36,3.47,4.55,5.62,8.07,5.85-1.08,4.37-2.22,8.92-3.35,13.81-1.19,5,2.22,10.63,8.01,11.31,5,.63,9.15-2.73,10.17-7.05,1.93-8.19,4.04-16.76,6.25-25.12,9.94-3.75,22.44-8.3,32.67-11.65,6.06,11.39,11.99,22.85,17.79,34.38,2.33,4.61,7.9,6.48,12.5,4.15,4.6-2.27,6.48-7.89,4.2-12.5h0ZM670.22,505.82c2.67-9.49,5.17-17.84,7.33-23.98,2.9,4.66,6.42,10.8,10.34,17.79-5.68,1.87-11.76,4.03-17.67,6.19h0ZM1331.8,254.99c-27.05,1.65-79.15,59.1-109.55,97.91-1.88-3.98-3.01-7.79-3.07-11.37-.06-16.36,30.86-65.46,36.6-77.73,6.02-12.84-.74-29.78-8.3-23.69-14.49,11.93-60.86,65.86-60.69,116.15,0,11.53,3.07,25.63,9.55,38.47-10.4,33.75-35.74,108.7-34.95,154.28.45,23.47,24.26,46.6,38.53,43.47,5.4-1.19,6.59-31.99,13.75-52.96,10.06-30.06,26.08-84.95,31.65-108.42h0c62.9,4.43,127.34-60.07,127.23-112.12-.17-52-30.97-64.56-40.74-63.99h0ZM1266.62,383.66c22.73-39.43,55.92-91.83,68.13-91.6,8.53.11,11.76,8.64,11.82,21.54.11,38.58-46.6,70.63-79.95,70.06h0Z"/>
</svg>