<?xml version="1.0" encoding="UTF-8"?>
<svg id="Capa_1" data-name="Capa 1" xmlns="http://www.w3.org/2000/svg" xmlns:xlink="http://www.w3.org/1999/xlink" viewBox="0 0 1204.84 457.79">
  <defs>
    <style>
      .cls-1 {
        fill: url(#Degradado_sin_nombre_9);
      }

      .cls-2 {
        fill: #241c32;
      }
    </style>
    <linearGradient id="Degradado_sin_nombre_9" data-name="Degradado sin nombre 9" x1="587.88" y1="343.53" x2="899.67" y2="146.99" gradientUnits="userSpaceOnUse">
      <stop offset="0" stop-color="#fb2754"/>
      <stop offset=".65" stop-color="#ff7d17"/>
    </linearGradient>
  </defs>
  <path class="cls-2" d="M6.41,329.13l67.93-19.96c8.17,30.44,40.94,52.67,72.23,41.69,27.48-9.65,33.35-42.53,11.19-61.61-44.19-38.03-125.42-40.17-137.08-113.55C1.75,56.61,177.49,22.47,233.03,115.31c1.73,2.89,10.36,19.05,9.06,21.13l-64.3,28.08c-8.78-24.13-30.58-41.96-57.51-35.47-20.92,5.04-32.24,26.44-20.79,45.77,10.45,17.63,63.06,35.3,83.09,45.73,33.81,17.6,61.23,44.17,64.5,84.26,7.18,88.15-78.99,130.19-155.96,109.84-41.96-11.09-71.83-42.7-84.71-83.53v-2Z"/>
  <path class="cls-2" d="M949.63,66.73c42.08,1.49,85.51-1.97,127.44-.04,49.78,2.29,97.84,20.23,112.63,72.11,18.45,64.73-16.19,122.5-81.69,135.49-1.25.25-1.77-.74-1.52,1.48l98.93,138.17h-87.93l-92.92-138.68v138.68h-74.94V66.73ZM1024.56,219.38h52.46c42.23,0,59.05-66.63,16.75-82.57-13.26-5-51.29-5.98-65.76-4.28-1.45.17-2.57.12-3.45,1.55v85.31Z"/>
  <path class="cls-1" d="M927.64,177.47l-140.47,103.73,52.53,165.66-141.36-100.87-142.38,101.87,15.8-48.57c38.49-49.81,83.78-94.16,131.59-134.99,17.51-14.95,36.19-28.82,53.43-43.91-41.33,9.22-81.6,23.42-118.92,43.37-6.99,3.74-18.69,12.67-25.02,14.95-1.12.4-2.1.85-3.34.55l-140.48-101.78h173.36l55.95-165.63,55.95,165.63h173.36Z"/>
  <polygon class="cls-2" points="497 66.73 497 135.57 421.07 135.57 421.07 413.94 344.13 413.94 344.13 135.57 268.19 135.57 268.19 66.73 497 66.73"/>
</svg>