<?xml version="1.0" encoding="UTF-8"?>
<svg id="Capa_1" data-name="Capa 1" xmlns="http://www.w3.org/2000/svg" viewBox="0 0 1686.89 502.92">
  <defs>
    <style>
      .cls-1 {
        fill: #fbd42c;
      }
    </style>
  </defs>
  <polygon points="1149.13 180.67 1149.13 57.47 1173.25 57.47 1173.25 233.06 1152.68 233.06 1066.84 107.03 1066.84 233.06 1044.85 233.06 1042.72 230.94 1042.72 57.47 1064.71 57.47 1149.13 180.67"/>
  <path d="M461.68,57.47l84.42,124.62V57.47h24.12v173.47c-5.01,3.51-18.84,3.63-23.48-.64l-82.94-123.27v126.03h-21.99l-2.13-2.12V57.47h21.99Z"/>
  <path d="M940.22,55c109.85-14.83,111.84,180.29,12.4,181.02-94.58.69-98.37-169.41-12.4-181.02ZM975.53,201.41c27.54-25.8,26.72-121.48-23.13-122.59-50.22-1.12-51.62,91.78-26.63,120.15,12.63,14.34,35.95,15.37,49.76,2.44Z"/>
  <path d="M738.73,281.58c105.34-14.28,112.08,173.31,16.64,180.87-98.87,7.82-105.76-168.78-16.64-180.87ZM740.13,307.04c-45.19,7.68-46.71,137.78,15.15,129.81,48.64-6.27,53.67-141.51-15.15-129.81Z"/>
  <polygon points="1394.6 284.04 1394.6 352.02 1455.61 352.02 1455.61 284.04 1485.41 284.04 1485.41 459.64 1455.61 459.64 1455.61 374.67 1394.6 374.67 1394.6 459.64 1364.8 459.64 1364.8 284.04 1394.6 284.04"/>
  <path d="M1050.52,284.04c46.92,5.55,54.58,63,25.75,92.96-2.52,2.62-12.21,8.22-12.29,11.05l34.07,71.58h-33.34l-27.81-64.29c-3.02-4.18-9.47-1.69-14.05-2.27v66.56h-29.8v-175.59c18.17,1.56,39.71-2.1,57.46,0ZM1022.85,371.84c11.93-2.09,22.92-.02,31.84-10,10.42-11.67,12.17-38.37-.57-48.82-1.6-1.31-7.84-4.9-9.28-4.9h-21.99v63.72Z"/>
  <path d="M966.1,450.43c-43.03,21.75-97.34,14.98-121.34-30.42-33.15-62.69,6.03-148.27,83.38-138.44,6.49.82,22.87,6.37,27.96,10.32,6.53,5.07-4.96,16.48-5.63,23.3-55.22-27.08-90.09,11.68-85.09,67.24,3.21,35.59,34.56,68.15,70.92,49.59v-53.1h29.8v71.51Z"/>
  <path d="M551.78,450.43c-45.09,23.5-103.78,12.95-124.52-37.15-25.69-62.07,10.7-138.83,84.06-132.04,6.48.6,29.89,7.34,32.74,12.74,2.38,4.52-7.6,15.64-7.91,21.23-59.3-30.22-95.88,21.34-83.03,77.93,7.09,31.22,37.71,55.5,68.86,38.89v-53.1h29.8v71.51Z"/>
  <path d="M717.79,233.06h-31.93l-14.74-47.3-52.46-.65-16.51,47.95h-23.41l59.04-175.68c8.49.03,16.99.06,25.48.09,18.18,58.53,36.35,117.06,54.53,175.6ZM626.98,163.68c13.81.32,27.62.63,41.43.95-6.9-24.28-13.81-48.57-20.71-72.85l-20.71,71.91Z"/>
  <path d="M1320.91,233.82h-31.93l-14.74-47.3-52.46-.65-16.51,47.95h-23.41l59.04-175.68c8.49.03,16.99.06,25.48.09,18.18,58.53,36.35,117.06,54.53,175.6ZM1230.1,164.43c13.81.32,27.62.63,41.43.95-6.9-24.28-13.81-48.57-20.71-72.85-6.9,23.97-13.81,47.94-20.71,71.91Z"/>
  <path d="M1103.87,459.64l58.31-175.45,23.33-.24,57.41,175.69h-31.92l-15.09-47.96-52.47.66-16.16,47.31h-23.41ZM1191.84,390.25l-21.27-70.8-18.46,70.8h39.73Z"/>
  <path d="M1276.83,459.64h-28.38v-175.59h56.05c1.91,0,15.23,3.88,17.74,4.95,38.26,16.44,30.9,79.05-3.29,97.26-2.81,1.5-16.49,6.82-18.7,6.82h-21.28l-2.13,2.12v64.43ZM1276.83,308.12v61.6c1.02,1.32,1.46,1.81,3.2,1.85s10.97-.88,13-1.26c21.46-3.97,30.18-28.95,22.8-48.01-1.84-4.76-10.89-14.18-15.59-14.18h-23.41Z"/>
  <polygon points="658.2 284.04 658.2 305.99 656.07 308.12 608.54 308.12 608.54 356.26 656.78 356.26 656.78 378.92 608.54 378.92 608.54 435.57 666.71 435.57 666.71 459.64 578.74 459.64 578.74 284.04 658.2 284.04"/>
  <path d="M1686.89,293.99l-8.53,21.21c-51.98-26.95-87.89,11.96-83.67,64.41,3.49,43.38,40.66,73.42,81.57,48.9l9.1,22.44c-74.58,38.84-136.25-29.04-119.55-104.38,12.14-54.74,72.49-83.93,121.09-52.59Z"/>
  <polygon points="821.37 57.47 821.37 80.13 775.97 80.13 775.97 230.94 773.84 233.06 746.17 233.06 746.17 82.25 744.04 80.13 700.77 80.13 700.77 57.47 821.37 57.47"/>
  <path d="M1359.13,57.47v151.52h58.17v24.07h-87.97V57.47h29.8Z"/>
  <rect x="1513.79" y="284.04" width="29.8" height="175.59"/>
  <rect x="831.3" y="57.47" width="28.38" height="175.59"/>
  <path class="cls-1" d="M301.18,48.28v406.36H48.28V48.28h252.9M349.46,0H0v502.92h349.46V0h0Z"/>
</svg>