<?xml version="1.0" encoding="UTF-8"?>
<svg id="Capa_1" data-name="Capa 1" xmlns="http://www.w3.org/2000/svg" viewBox="0 0 2500 617">
  <defs>
    <style>
      .cls-1 {
        fill: #c00;
      }
    </style>
  </defs>
  <path class="cls-1" d="M78.75.28h537.68l-22.81,175.89H56.88S78.75.28,78.75.28ZM47.19,240.85h538.3l-16.56,143.09H232.46l-8.75,68.42h337.1l-20.93,163.4H.33L47.19,240.85h0ZM625.17,176.17s3.75-59.98,18.75-91.23c14.06-29.37,32.8-50.61,64.36-68.42,18.75-10,52.17-16.25,52.17-16.25h968.5s40.61.62,58.11,7.81c18.75,7.81,45.93,19.37,60.3,54.36,14.06,33.43,11.25,44.36,11.25,77.79s-.94,35.93-.94,35.93H625.17ZM616.42,242.41h495.5s44.05,0,64.36,12.18c21.24,14.06,30.93,31.24,37.18,58.42,5.93,27.18-10.62,164.33-20.31,197.76-10.62,32.8-23.12,63.73-74.36,89.35-45.92,23.43-115.6,15.62-115.6,15.62h-428.02l25.31-163.4h400.84l8.12-69.36h-276.49s-44.99,6.25-87.16-30.3c-25.62-21.87-28.43-55.3-30-69.98-1.88-8.44.62-40.31.62-40.31h0ZM1260.95,242.41h584.54s-5.31,67.48-21.24,91.54c-15.94,24.99-30,38.43-56.55,44.36-27.18,6.25-67.8,6.25-67.8,6.25h-254.31l-26.56,231.19h-204.01l45.93-373.34ZM1885.17,177.74h607.34s11.56-53.11,5.31-86.54-21.24-55.92-45.93-72.17c-32.49-22.81-91.85-18.75-90.91-18.75h-451.14l-24.68,177.46h0ZM1877.36,242.41h201.2l-45.93,373.34h-199.64l44.37-373.34h0ZM2281.62,243.97h199.32l-45.92,371.78h-198.39l44.99-371.78h0Z"/>
</svg>