<?xml version="1.0" encoding="UTF-8"?>
<svg id="Capa_1" data-name="Capa 1" xmlns="http://www.w3.org/2000/svg" viewBox="0 0 1000 999.84">
  <path d="M1000,499.85c0,276.09-223.89,499.99-500.01,499.99S0,775.95,0,499.85c0-26.08,1.98-51.68,5.86-76.66h106.77v295.43h101.29v-295.43h113.47v295.43h96.76v-220.24h2.08l128.85,192.9c12.82,20.34,24.63,27.35,49.26,27.35h66.52v-295.44h113.84v295.43h99.62v-295.43h109.78c3.88,24.98,5.9,50.58,5.9,76.66h0Z"/>
  <path d="M323.88,350.64h98.02c24.68,0,36.99,6.94,49.31,27.31l101.22,157.65h3.5v-184.96h401.19C913.65,147.46,723.99,0,499.85,0S86.02,147.46,22.55,350.64h301.33"/>
</svg>