<?xml version="1.0" encoding="UTF-8"?>
<svg id="Capa_1" data-name="Capa 1" xmlns="http://www.w3.org/2000/svg" viewBox="0 0 1395.82 835.38">
  <defs>
    <style>
      .cls-1 {
        fill: #fff;
      }
    </style>
  </defs>
  <path class="cls-1" d="M697.91,0h697.91v697.73h-697.91V0Z"/>
  <path d="M0,0h697.91v697.73H0V0Z"/>
  <path class="cls-1" d="M640.21,194.5l-173.34,99.16c-25.4-40.77-61.56-56.37-95.25-56.65-61.36-.51-114.27,48.74-114.24,111.58-.03,64.64,53.05,111.52,111.12,112.51,34.71.58,76.94-18.75,98.4-57.08l173.33,99.42c-63.01,108.61-171.03,157.65-271.96,157.47-160.05-.26-310.6-128.22-310.59-312.05,0-182.87,151.17-313.05,311.2-312.02,103.78.68,209.58,49.5,271.35,157.65h-.02Z"/>
  <path d="M747.89,49.87h199.31l199.51,249.41V49.87h199.15v597.99s-199.14,0-199.14,0l-199.51-249v249h-199.36l.04-597.99ZM77.45,748.34c10.96,3.08,20.18,10.76,26.14,20.36l-22.95,13.13c-4-5.57-10.59-9.58-17.66-8.52-6.98.68-13.11,5.99-14.94,12.75-2.83,11.99,5.75,21.95,16.24,22.46,5.87.18,12.13-2.41,16.36-8.67l22.95,13.25c-7.57,12.53-20.99,21.02-35.61,22.26-27.12.84-50.5-19.93-46.76-51.56,5.04-27.42,30.55-42.58,56.24-35.46h0Z"/>
  <path d="M435.59,746.7c-8.56-.6-17.36,1.24-25.27,5.83-21.09,12.23-28.39,39.66-16.16,60.76,12.23,21.1,39.67,28.39,60.76,16.16,20.18-11.7,27.53-37.26,17.44-57.93-.32-.98-.75-1.93-1.27-2.82v-.02s-.01,0-.02,0c-.52-.92-1.15-1.78-1.86-2.57-7.86-11.53-20.38-18.48-33.63-19.41h0ZM433.75,774.89c5.12.33,9.93,3.15,12.76,8.04h0s0,0,0,0c4.53,7.82,1.97,17.41-5.84,21.94-7.82,4.53-17.41,1.98-21.94-5.84-4.53-7.82-1.98-17.41,5.84-21.94h0c2.93-1.7,6.11-2.4,9.18-2.21h0ZM1148.56,746.7c-8.56-.6-17.36,1.24-25.27,5.83-21.09,12.23-28.39,39.66-16.16,60.76,12.23,21.1,39.67,28.39,60.76,16.16,20.18-11.7,27.53-37.27,17.44-57.94-.32-.98-.74-1.92-1.27-2.81,0,0,0-.01-.01-.02h0c-.52-.93-1.15-1.79-1.86-2.58-7.86-11.53-20.38-18.48-33.63-19.41h0ZM1146.72,774.89c5.12.33,9.93,3.15,12.76,8.04h0c4.53,7.82,1.98,17.41-5.84,21.94-7.82,4.53-17.41,1.98-21.94-5.84s-1.98-17.41,5.83-21.94h0c2.93-1.7,6.11-2.4,9.18-2.21h0Z"/>
  <path d="M174.59,748.38h-42.56l-26.65,85.21h29.96l4.38-14.29h27.29l4.3,14.29h29.95l-26.66-85.21ZM153.32,771.88l7.61,26.44h-15.24l7.63-26.44ZM209.83,748.38v85.21h28.22v-24.91h9.2l12.65,24.91h31.39l-16.45-27.95c12.67-8.12,17.01-18.19,16.53-28.3.01-15.27-13.75-28.53-28.79-28.96h-52.75ZM256.83,773.23c3.64.05,6.29,3.58,6.45,6.61.09,4.33-3.2,7.57-6.48,7.65l-18.75.03v-14.29h18.78ZM299.17,773.24v-24.88h85.38v24.88h-26.71v60.33h-31.93v-60.33h-26.73ZM581.98,748.38h28.16l28.85,35.43v-35.43h28.18v85.21h-28.18l-28.85-35.51v35.51h-28.16v-85.21ZM724.8,748.38h28.16l28.85,35.43v-35.43h28.18v85.21h-28.18l-28.85-35.51v35.51h-28.16v-85.21ZM822.25,748.38h74.41v24.86h-46.22v8.72h38.92v19.9h-38.92v8.97h46.22v22.75h-74.41v-85.21ZM906.07,773.24v-24.88h85.38v24.88h-26.72v60.33h-31.93v-60.33h-26.73ZM998.58,748.38h28.64s7.16,37.21,7.19,37.36l14.11-34.31,14.37,34.23,7.19-37.28h28.38l-16.23,85.21h-23.61l-10.11-23-10.23,23h-23.22s-16.19-83.28-16.5-85.21h0ZM1198.27,748.38v85.21h28.22l.05-24.91h9.14l12.64,24.91h31.4l-16.45-27.95c12.67-8.12,17.01-18.19,16.53-28.3.01-15.27-13.75-28.53-28.8-28.96h-52.74ZM1245.26,773.23c3.64.05,6.29,3.58,6.45,6.61.09,4.33-3.2,7.57-6.47,7.65l-18.75.03v-14.29h18.78ZM1288.91,833.57v-85.21h28.5v27.6l21.25-27.6h36.34l-32.98,40.62,32.98,44.58h-36.34l-21.25-31.71v31.71h-28.5Z"/>
  <path d="M531.9,746.7c-8.56-.6-17.36,1.24-25.27,5.83-21.09,12.23-28.39,39.66-16.16,60.76,12.23,21.1,39.66,28.39,60.76,16.16,20.18-11.7,27.53-37.26,17.44-57.93-.32-.98-.75-1.93-1.27-2.82v-.02s-.01,0-.02,0c-.52-.92-1.15-1.79-1.86-2.57-7.86-11.53-20.38-18.48-33.63-19.41h0ZM530.06,774.89c5.12.33,9.92,3.15,12.76,8.04h0s0,0,0,0c4.53,7.82,1.98,17.41-5.84,21.94-7.82,4.53-17.41,1.98-21.94-5.84-4.53-7.82-1.98-17.41,5.83-21.94h0c2.93-1.7,6.11-2.4,9.18-2.21h0Z"/>
</svg>