<?xml version="1.0" encoding="UTF-8"?>
<svg id="Capa_1" data-name="Capa 1" xmlns="http://www.w3.org/2000/svg" viewBox="0 0 1095.65 1048.87">
  <defs>
    <style>
      .cls-1 {
        stroke: #000;
        stroke-width: 1.21px;
      }
    </style>
  </defs>
  <g id="layer1">
    <g id="layer1-0">
      <g id="layer1-1">
        <path id="path3042-4" class="cls-1" d="M478.18,1016.26c-70.7-35.64-123.34-67.89-172.5-105.69-60.94-46.85-125.44-118.92-177.53-198.36C60.68,609.31,28.4,509.99,17.93,373.1c-3.16-41.35-3.54-162.84-.57-179.63l1.94-10.92,47.93-10.31c26.36-5.67,49.4-10.86,51.19-11.55,1.79-.68,4.69-8.53,6.45-17.44,1.75-8.91,3.99-17.38,4.96-18.82.98-1.44,21.77-7.39,46.21-13.21l44.43-10.59,4.22-18.56c2.32-10.21,4.22-20.5,4.22-22.88s2.78-5.49,6.17-6.92,69.31-12.66,146.49-24.94l140.32-22.33,140.58,23.79c77.32,13.09,141.23,24.42,142.02,25.19s3.96,11.47,7.05,23.79l5.62,22.39,43.65,9.67,43.65,9.67,8.42,21.75,8.42,21.75,45.72,9.73c25.14,5.35,46.86,10.96,48.25,12.47,8.29,8.98,13.9,124.69,8.82,182.28-4.21,47.82-10.26,89.23-16.89,115.58-2.91,11.56-5.28,22.04-5.28,23.3,0,1.26,5.47,5.73,12.14,9.95,18.96,11.98,43.86,40.49,54.83,62.79,31.99,65.01,20.05,137.59-31.1,188.89-23.57,23.64-48.88,38.13-79.07,45.25-26.07,6.15-67.09,3.86-91.56-5.11l-18.25-6.69-17.38,20.47c-56.02,65.98-150.53,135.7-261.53,192.93l-46.78,24.12-45.04-22.71ZM544.59,996.4c60.54-25.86,126.83-69.54,191.44-126.11,34.23-29.98,85.77-82.46,84.5-86.04-1.33-3.75-41.42-49.48-43.22-49.29-.85.09-7.71,8.33-15.24,18.33-18.22,24.15-73.76,79.79-102.79,102.97-47.97,38.3-90.24,64.04-124.5,75.83l-16.18,5.57-44.92-23.32c-70.37-36.54-106.79-62.72-159.4-114.57-89.99-88.7-150.29-192.51-177.06-304.81-14.2-59.58-18.81-101.91-19.07-175.19l-.24-68.28,6.85-2.11c3.77-1.16,21.46-5.48,39.31-9.6,17.85-4.12,34.08-9.11,36.07-11.1,1.99-1.99,4.47-8.69,5.52-14.89,1.08-6.41-.62-12.06,5.18-15.33,6.54-3.69,21.82-4.87,46.45-10.64,26.4-6.19,32.89-8.68,34.71-13.33,1.23-3.15,4.9-12.68,8.16-21.18l5.92-15.46,19.68-2.96c10.82-1.63,58.18-9.89,98.13-15.99,41.03-6.27,58.64-10.11,78.33-11.65,7.13-.56,14.62-2.75,21.09-2.7,22.01.16,43.43,7.64,86.65,14.5,42.97,6.82,87.09,13.96,98.06,15.86l19.94,3.47,3.97,13.35c2.18,7.34,4.73,17.42,5.66,22.4l1.7,9.04,33.34,6.1c18.34,3.36,37.05,7.83,40.4,9.95,3.7,2.33,6.78,9.52,9.32,18.28l4.2,14.44,25.34,6.58c13.94,3.62,34.82,9.47,46.39,13l21.05,6.43,1.91,15.29c1.05,8.41,1.22,42.62.37,76.02-1.49,58.88-4.51,82.19-16.97,131.11-1.77,6.96-1.27,7.41,10.03,8.89,6.54.86,21.74,1.88,33.77,2.26l21.87.7,7.44-37.01c10.19-50.71,13.05-75.66,15.04-131.57,1.99-55.81-.67-105.37-5.93-110.63-1.97-1.97-26.5-9.53-54.52-16.79l-50.93-13.21-6.2-19.37-6.2-19.37-43.45-10.18c-23.9-5.6-43.87-10.6-44.39-11.12s-3.94-11.36-7.62-24.09c-3.68-12.74-8.37-24.09-10.44-25.22-2.06-1.14-57.16-10.55-122.43-20.91l-118.68-18.85-84.16,13.09c-109.18,16.98-167.5,26.73-170.34,28.49-1.25.78-4.44,9.75-7.08,19.94s-4.09,21.47-8.71,24.84c-2.91,2.12-24.96,7.14-48.32,12.9l-42.47,10.47-1.81,12.57c-1.79,12.43-.67,19.23-6.28,23.17-6.15,4.32-20.17,5.41-50.25,11.39-28.57,5.68-52.74,11.61-53.71,13.18-4.51,7.3-6.92,98.14-3.87,145.75,6.05,94.41,21.18,165.52,51.03,239.9,33.23,82.79,79.61,153.41,146,222.27,62.44,64.77,126.73,112.33,220.15,162.87,21.74,11.76,43.23,23.63,47.76,26.38,4.52,2.75,9.04,5.02,10.04,5.04,1,.02,12.1-4.35,24.67-9.72h0ZM587.67,870.76c56.79-37.63,101.79-78.56,150.89-137.26,24.97-29.86,25.14-30.16,22.96-41.12-1.21-6.07-2.19-24.61-2.18-41.19.03-47.73,14.38-83.07,46.98-115.67l12.81-12.81-7.93-15.15c-4.36-8.34-14.83-22.2-23.25-30.81l-15.32-15.65,23.43-17.34c37.15-27.49,56.64-47.14,66.39-66.93,17.52-35.59,9.87-60.19-31.52-101.36-55.32-55.02-131.43-93.33-231.19-116.37-38.67-8.93-47.42-9.75-52.3-4.87-2.53,2.53-3.29,89.12-3.29,373.09,0,340.46.35,369.66,4.46,368.08,2.45-.94,20.03-12.03,39.06-24.64ZM500.29,525.3c0-331.33-.43-368.92-4.31-372.79-8.53-8.53-59.96-3.08-77.17,8.18l-6.1,3.99,1.47,226.81c.94,144.11.52,225.31-1.14,222.7-3.89-6.12-25.68-75.57-28.81-107.33-5.25-53.3-14.07-93.69-16.81-215.18-1.48-65.58.51-105.89-.32-108.52-2.51-7.98-13.72-8.69-32.09-2.04-25.5,9.23-42.49,18.46-45.98,24.99-4.86,9.08-1.81,186.36,4.26,248.16l4.89,49.77-8.34,14.45-8.34,14.45-11.02-34.48c-21.47-67.16-27.97-108.42-32.97-209.27-1.2-24.23-3.08-45.51-4.18-47.28s-3.95-3.23-6.33-3.23c-4.92,0-43.41,25.32-59.49,39.13l-10.69,9.19,3.12,43.68c8.11,113.74,27.96,196.24,63.38,263.55,12.8,24.33,42.09,67.56,50.5,74.54,3.44,2.86,7.49-1.73,26.23-29.7,12.19-18.19,22.66-33.08,23.26-33.08s3.21,6.48,5.8,14.39c6.45,19.74,28.8,75.52,40.91,102.11,23.87,52.4,38.76,77.22,67.65,112.8,15.8,19.45,56.11,58.52,60.38,58.52,1.23,0,2.23-165.82,2.23-368.49h0ZM881.31,675.71v-50.86l12.82.84,12.82.84,20.44,50.03,20.44,50.03h36.48l7.11-21.24c3.91-11.68,14.56-42.52,23.67-68.53l16.56-47.28h-47.98l-9.34,32.7c-5.29,18.53-10.23,31.3-11.39,29.47-1.13-1.78-6.49-16.49-11.92-32.7l-9.86-29.47h-131.12v38.38h27.41v98.68h43.86v-50.86Z"/>
        <path id="path3044-8" class="cls-1" d="M629.13,348.64v-104.18l18.5,6.33c63.7,21.79,116.07,55.56,124.16,80.06,8.27,25.05-17.9,57.47-71.78,88.94-19.09,11.15-52.7,27.3-64.72,31.09l-6.17,1.95v-104.18h0Z"/>
        <path id="path3046-8" class="cls-1" d="M631.98,634.31l-.11-99.11,21.24-9.02c36.76-15.6,63.29-12.01,74.7,10.12,7.11,13.8,4.94,40.44-5.29,64.82-14.02,33.42-49.79,87.37-80.26,121.05l-10.17,11.24-.11-99.11h0Z"/>
      </g>
    </g>
  </g>
</svg>