<?xml version="1.0" encoding="UTF-8"?>
<svg id="Capa_1" data-name="Capa 1" xmlns="http://www.w3.org/2000/svg" viewBox="0 0 1133.05 821.24">
  <defs>
    <style>
      .cls-1 {
        fill: #016bb1;
      }
    </style>
  </defs>
  <g id="g151">
    <path id="path2" class="cls-1" d="M86.19,583.5l13.81-20.85,23.94,6.55-15.62-19.03,13.41-20.58-23.19,9.07-16.11-18.99,1.37,24.65-22.48,8.5,23.46,6.15,1.42,24.52ZM82.91,491.66l17.48-18.01,22.35,10.97-11.73-21.55,17.04-17.7-24.43,4.51-12.17-21.77-3.23,24.48-23.9,4.11,21.86,10.53-3.28,24.43ZM97.34,400.71l20.54-14.16,19.92,14.87-7.52-23.46,20.31-14.03-24.96-.31-7.74-23.63-7.97,23.55-24.21-.58,19.47,14.38-7.83,23.37ZM200.37,230.54l12.84,21.29,1.77-24.34,24.03-5.71-22.88-9.51,1.64-24.74-16.06,18.76-22.31-9.65,12.61,20.71-16.02,18.63,24.38-5.44ZM496.99,84.93l18.41-16.29,21.11,12.7-9.96-22.92,18.41-16.64-24.56,2.26-9.29-22.31-5.44,23.59-24.43,2.43,21.33,12.83-5.58,24.34ZM144.92,756.9l4.96-24.52,24.65-2.97-21.55-11.77,4.65-24.03-18.1,16.99-22-11.51,10.62,22.31-17.75,16.42,23.99-3.1,10.53,22.17ZM262.03,167.21l8.59,23.37,6.46-23.72,24.61-.84-20.71-13.72,6.42-24.12-19.34,15.27-20.09-13.5,8.32,22.75-19.16,15.18,24.92-.66ZM334.79,116.49l3.85,24.56,11.02-22.04,24.3,3.89-17.79-17.48,10.89-22.4-22.08,11.33-16.99-17.08,3.98,23.81-21.82,11.42,24.65,3.98ZM414.94,105.42l14.87-19.56,23.23,8.41-14.12-20.54,14.92-19.83-23.77,6.77-13.41-19.96-.71,24.21-23.63,6.86,23.46,8.72-.84,24.92ZM101.1,649.44l6.02,23.81,9.56-23.23,24.92,1.82-19.03-15.63,9.21-22.75-20.98,13.28-19.43-15.58,6.11,23.99-20.58,12.66,24.21,1.64ZM128.9,314.63l22.88-10.14,16.6,18.54-2.83-24.43,22.44-9.96-24.3-4.96-3.1-24.74-12.35,21.47-23.59-5.13,16.29,17.97-12.04,21.38ZM841.71,164.11l6.37,23.72,8.89-23.19,24.78.66-19.25-15.45,8.76-22.53-20.31,13.32-19.12-15.4,6.28,24.16-20.93,13.59,24.52,1.11ZM880.52,218.28l23.95,5.62,1.64,24.56,13.01-21.2,24.3,5.53-15.98-18.85,12.88-20.45-22.4,9.16-15.98-18.68,1.64,24.92-23.06,9.38ZM768.86,116.93l10.76,22,4.16-24.39,24.56-3.94-21.82-11.55,4.21-23.77-17.3,16.99-21.82-11.42,10.76,22.53-17.75,17.31,24.25-3.76ZM954.66,294.76l-2.97,24.3,16.91-18.28,22.7,10.05-12.17-21.55,16.6-17.57-23.77,4.82-12.12-21.6-3.1,24.78-24.34,4.74,22.26,10.31ZM665.03,92.81l23.28-8.28,14.74,19.78-.66-25,23.46-8.45-23.68-7.17-.44-24.21-13.76,19.96-23.5-7.12,14.91,20.14-14.34,20.36ZM1038.84,539.81l1.72-24.61-16.33,19.16-23.06-9.43,13.23,20.62-15.8,18.94,24.08-6.2,13.59,20.85,1.59-24.65,23.46-5.8-22.48-8.9ZM1022.33,644.97l24.21-1.15-20.31-13.14,6.15-23.72-19.56,15.62-20.85-13.63,9.12,22.97-19.25,15.4,24.92-1.46,9.38,23.01,6.2-23.9ZM974.44,728.31l4.69,24.52,10.8-22.26,23.94,3.45-17.57-16.69,10.76-22.13-22.22,11.55-18.01-17.35,4.56,24.03-21.6,11.59,24.65,3.28ZM366.16,573.58c-1.9-1.55-25.27,22.22-40.54,38.81-5.4,5.76-8.9,11.2-10.98,13.77,0,0-6.73,11.11-10.31,15.8-3.63,4.69-12.61,17.92-16.6,23.68-1.37,1.9-4.91,10.27-11.86,18.94-3.45,4.34-6.95,10-13.72,18.68-9.03,11.59-15.85,21.11-14.29,22.39.88.62,14.16-15.45,28.41-32.71,5.93-7.21,12.35-14.6,17.79-21.64,2.65-3.41,8.76-9.11,10.76-12.04,3.49-5.18,7.3-9.12,8.81-10.36,7.92-6.46,12.39-6.95,14.96-10.62,1.2-1.81,16.9-25.45,22.61-35.05,5.22-9.07,18.1-26.82,14.96-29.65M1030.6,423.81l-12.3,21.73-24.39-4.78,16.95,17.92-11.81,21.38,22.4-10.62,17.26,17.83-3.05-24.61,21.95-10.09-23.9-4.43-3.1-24.34ZM970.63,359.51l20.05,14.21-7.61,23.46,19.92-14.83,20.58,14.3-7.88-23.55,19.61-14.16-24.12.22-7.84-23.37-7.83,23.68-24.87.04ZM581.39,80.77l21.24-12.53,18.23,16.33-5.35-24.25,21.2-12.7-24.56-2.57-4.96-23.68-9.73,22.17-24.43-2.35,18.5,16.73-10.13,22.84ZM584.58,512.24c2.3,6.77,10.84,46.69,13.32,54.97,2.57,8.23,5.13,8.68,6.55,11.91,4.95,12.44,12.08,12.92,15.75,13.94,10.27,3.14,11.11,16.91,17.66,29.21,6.11,11.51,11.86,21.86,17.26,34.43,5.4,12.57,33.02,80.64,37.75,90.99,1.59,3.76,14.74,3.76,13.32,0-3.32-7.48-10.89-26.29-15.58-45.05-2.96-12.17,8.41-3.54,1.15-23.06-3.36-8.94-9.73-17.84-13.32-21.47-3.67-3.58-7.22-19.03-10.01-25.94-2.96-6.73-1.46-7.08-7.57-23.32-4.56-11.86,8.23-7.88,1.06-26.16-4.65-11.9-28.28-54.92-31.03-59.35-1.33-2.44-5.89-9.87-11.51-18.68-5.31-8.36-9.69-17.3-12.22-21.2-4.91-7.88-13.94-25.14-19.03-32.31-5.04-7.21-11.33-23.06-13.94-20.4-2.57,2.35,7.61,26.11,11.77,41.25,4.38,15.09,1.2,21.24-1.41,25.54-2.44,4.25-2.44,7.08,0,14.69M744.92,635.45c6.95,11.55,8.81,9.25,11.69,9.39,6.55.18,21.2,15.93,24.12,20.23,2.79,4.34,26.38,27.84,32.44,33.59,2.66,2.52,21.33,32.7,23.72,30.54,2.52-2.17-7.17-16.82-8.63-20.1-1.33-3.19-6.73-7.92-9.34-14.78-2.43-6.73-13.54-23.68-17.17-29.03-3.59-5.4-9.43-17.35-15.8-24.92-5.89-6.64-1.19-8.45-7.26-14.29-3.67-3.45-15.09-13.59-17.66-15.71-2.43-2.21-11.77-10.49-17.13-15.13-5.31-4.52-18.06-13.37-17.61-19.03.17-5.8-2.61-16.82-6.91-20.49-3.1-2.66-12.22-17.35-22.66-25.85-5.27-4.43-16.51-16.11-25.18-26.24-8.1-9.65-14.21-18.46-16.07-17.22-2.74,1.77,9.43,18.77,10.67,20.8,1.28,1.95,15.36,26.29,16.68,32.66,1.46,6.46,27.71,50.63,33.33,64.35,3.23,8.01,21.2,18.72,28.77,31.24M859.55,678.16c.88-1.06-1.64-4.34-3.01-6.82-1.51-2.48-10.45-12.39-12.13-15.18-1.46-2.61-13.05-19.12-17.13-24.52-7.26-9.3-.62-12.7-4.42-18.46-1.55-2.52-10.84-13.72-21.64-24.78-5.58-5.53-11.77-10.89-17.04-15.62-8.54-7.61-15-13.28-16.06-12.35-1.51,1.5,3.54,7.57,5.71,10.35,2.17,2.65,5.58,7.57,10.09,12.92,7.3,8.72.53,15.31,7.52,22.26,1.15,1.15,20.45,22.75,25.19,26.73,7.03,6.28,32.17,36.11,33.94,37.75,2.97,2.79,8.14,8.77,8.98,7.7M461.67,536.58c1.42-3.01,5.8-12.3,5.58-16.02,0-.66-1.64-1.82-3.01-.45-6.46,6.38-19.61,29.12-24.61,31.69-11.24,5.44-16.15,18.63-19.52,23.85-2.39,3.85-5.49,10.09-10.84,17.93-4.69,6.77-10.05,16.9-12.04,20.4-1.95,3.67-2.66,7.04.97,7.04s.8,5.93-3.63,12.44c-2.52,3.81-8.76,22.04-10.58,27-2.39,6.11-2.04,13.9-2.88,16.51-.84,2.44-12.74,27.8-15.84,33.42-1.95,3.54-1.37,4.96-2.12,6.91-1.11,2.43.27,3.14,2.12,1.37,2.26-2.26,15-21.6,18.9-23.9,3.81-2.39,7.3-5.93,7.88-14.25.58-8.32,5.98-10.58,10-15.45,4.2-4.83,9.74-11.29,12.7-18.06,2.79-6.99,6.37-1.68,12.84-12.08,6.46-10.49,20.98-36.34,24.3-41.34,3.19-5,.84-12.22.44-18.19-.18-3.14.27-10.89,2.12-19.12,1.86-7.35,5.27-14.83,7.21-19.7M517.26,339.11c5.35,0,13.19-9.78,17.44-18.28,4.38-9.21,6.6-14.38,12.08-26.16.22-.62-.31-.62-.89-.62-6.24,0-13.1,6.37-17.48,11.51-5.18,6.37-13.68,18.37-14.96,27-.93,4.65,1.11,6.55,3.81,6.55M655.52,347.38c6.11,3.1,13.68-10.36,20.27-22.61,6.55-12.35,11.77-27.66,6.24-29.57-6.24-2.52-14.16,9.52-20.76,21.82-6.51,12.3-11.46,27.62-5.75,30.36M419.32,339.11c5.49,0,13.14-9.78,17.57-18.28,4.34-9.21,6.64-14.38,11.95-26.16.27-.62-.27-.62-.75-.62-6.28,0-13.14,6.37-17.48,11.51-5.18,6.37-13.76,18.37-15.05,27-.93,4.65,1.28,6.55,3.76,6.55M359.3,227.88c42.49,1.99,67.49,22.84,67.49,45.19-.04,39.97-63.42,46.78-63.42,46.78-11.02,55.37-54.92,76.48-85.33,76.17-40.81-.31-40.19-33.37-38.81-37.62,1.73-4.91,4.25-9.38,9.38-9.38s9.34,4.16,9.34,9.38c0,3.14-1.55,6.11-4.25,7.66-5.35,3.32-4.34,7.48-4.34,7.48,0,17.57,22.7,18.94,28.68,18.94,60.77,0,53.77-100.11,107.37-134.14,2.43-1.64,4.34,0,2.83,1.68-16.73,20.98-23.01,54.79-23.01,54.79,25.85,0,42.93-24.61,42.93-41.74,0-29.34-26.42-41.51-48.86-41.51-62.58,0-89.76,43.73-89.76,67.54s15.05,32.48,25.94,32.48c15.18,0,19.92-10.13,18.06-15.09-3.01-7.79,1.15-14.3,5.84-14.3,1.86,0,8.1-.31,8.1,10.67s-15,21.24-31.6,21.24-40.32-8.85-40.32-35.01c0-53.02,65.23-73.16,103.74-71.21M464.68,292.68c-6.77,15.31-11.77,26.29-18.01,40.76-.53,1.37-1.02,3.76.27,4.65,1.15.53,2.48.53,3.23,0,8.01-3.85,15.05-13.19,20.58-23.81l9.87-21.77h13.9l-3.81,8.23c-.31.44-.31.71,0,.44,4.34-3.27,8.9-8.19,14.47-11.24,2.17-1.02,7.35-1.02,6.81,2.57-.27,3.19-2.7,5.62-4.07,8.67-.8,1.95-1.64,4.38-1.37,5.71.58,1.46,2.17,2.26,4.34.62,2.17-1.37,3.85-2.48,5.84-4.12,3.45-3.36,7.83-6.51,12.74-9.12,9.87-4.56,23.28-7.52,33.11-1.28-6.86,15.36-12.04,26.78-18.59,41.25-1.2,2.48-.22,3.27.58,3.85.84.53,2.43.8,4.65-.4,5.4-2.26,14.96-12.92,18.76-21.2,3.63-7.7,6.91-15.31,10.76-23.99h14.3l-3.99,8.41.58.27c3.81-3.5,13.77-11.46,21.11-9.78,4.07.84,6.06,5.71,5.76,9.34,4.65-3.41,9.43-7.48,16.33-9.16,9.87-2.43,13.72,4.42,10.67,11.02-3.85,9.03-11.46,26.73-15.84,35.85-.53.93-.53,2.96,0,3.41,1.11.89,3.05,0,3.9-.44,4.91-4.2,7.61-6.9,11.42-12.3,1.06-9.56,6.24-18.37,13.41-25.71,7.61-8.45,19.65-15.05,31.2-11.15,4.03,1.33,6.77,5.44,7.88,9.52.53,2.17,1.06,3.27,1.06,5.75,6.06,4.43,13.98-2.79,17.22-8.19.89-2.21,1.99-4.65,2.52-6.33,3.45.27,10.22,0,14.25,0l-17.84,40.76c-1.15,2.39-1.41,3.76-1.41,5.62,0,1.5,1.64,1.77,3.36,1.5,4.91-.89,12.92-10.53,16.95-18.63,4.52-10.14,8.99-18.59,13.41-28.68h14.43c-5.75,13.63-12.26,28.15-16.95,38.77-1.11,2.17-2.39,4.38-1.68,7.39.58,1.42,2.48,1.15,3.67.62,6.24-3.63,17-15.58,20.72-22.97,3.89-8.76,6.77-15.31,10.84-23.81h14.83l-3.54,8.5c5.53-4.38,11.46-9.07,18.59-10.22,3.27-.44,7.35-.27,9.25,3.1,2.21,3.81.88,7.83-.75,11.51-4.07,9.29-8.81,19.39-12.88,28.37-.75,2.21-.97,4.29.49,5.18,2.26,1.42,12.61-4.91,17.88-16.42,4.56-10.09,7.66-16.07,11.73-25.89h-7.61l2.12-4.43h7.66l10.93-23.77h14.74l-10.62,23.77h11.11l-2.08,4.43h-10.93c-6.28,13.32-11.55,24.56-17.04,37.13-2.12,4.29-4.34,11.51-3.19,15.89.84,2.43,3.85,3.05,6.59,2.12,8.41-2.92,14.16-10.09,19.08-17.75.27-.84,4.73-.27,4.38.35-5.8,11.42-18.32,22.97-30.32,22.66-3.58,0-7.48-2.21-9.6-5.27-1.02-1.59-1.68-2.92-2.21-4.82-.75-3.1-.53-6.6,0-9.91-6.51,4.96-12.74,10.93-20.98,12.61-3.59.53-8.19-.8-9.03-4.65-.53-3.01-.27-6.33.84-9.03,5.18-11.2,9.78-21.29,14.69-33.11.4-.53,0-2.48-.58-2.74-.8-.75-3.23-.75-5.4.89-10.09,7.61-15.27,17.48-19.61,27.57-3.1,6.77-6.41,13.63-9.65,20.27h-14.52c1.68-4.07,4.12-9.56,6.02-13.98,0-.27-.26-.27-.26,0-5.97,5.93-13.68,12.75-21.24,14.78-3.06.8-6.11-.22-7.66-3.1-1.73-2.7-2.21-6.73-.75-10.4,0-.18-.13-.18-.44,0-5.4,5.53-10.67,10.4-17.93,12.92-8.28,2.52-15.71-3.27-10.49-15.31,1.42-3.23,5.53-12.3,10.05-23.19-3.76,1.55-8.36,1.55-10.84.8q-.31,0-.31.27c-3.19,15.27-12.26,29.17-26.2,35.8-6.82,3.32-14.56,4.16-21.33-.49-3.27-2.17-5.22-7.48-5.49-12.08-7.04,7.13-15.05,16.11-25.94,14.56-1.64-.35-3.01-1.82-3.85-3.32-2.48-4.11-1.02-8.54.53-12.08,5.22-10.89,9.52-21.07,14.74-33.33.84-1.73-1.51-2.97-3.19-2.17-5.18,2.48-8.36,4.96-11.24,9.38-1.55,2.39-3.1,5.13-4.34,7.74-4.83,10.49-9.87,21.38-14.25,31.95h-14.83c6.64-14.91,12.88-29.43,19.43-44.17.62-1.37.27-3.32-.53-3.76-1.28-.71-3.63.44-5.14,1.33-3.54,2.43-6.68,5.67-9.03,9.87-2.48,4.07-4.73,8.14-6.46,12.57l-11.06,24.16h-14.47c1.42-3.19,4.12-9.56,5.75-12.75,0-.27-.27-.49-.27-.27-7.92,6.55-18.06,15.05-25.45,13.63-2.48-.27-4.6-2.43-5.18-4.65-.53-2.79-.31-5.27.27-7.61,0-.31-.27-.31-.58,0-6.33,6.02-11.99,10.98-19.96,12.88-4.56,1.02-8.85-1.9-10.31-5.27-2.04-3.76-2.52-9.83.75-16.69,1.95-4.38,4.07-8.98,6.77-12.79-1.59.84-4.82,1.11-7.04.84-1.86-.27-3.85-1.73-4.82-3.14-1.15-1.24-1.42-3.72-1.42-5.36.27-.31-.58-.31-1.15,0-4.34,3.5-6.28,7.66-8.45,12.26l-12.57,28.46h-14.78l5.44-12.08c.27-.22,0-.49-.27-.22-7.7,6.82-16.91,14.56-24.34,13.1-2.12-.35-4.38-2.48-4.91-4.6-.53-2.57-.31-5.31,0-7.7h-.53c-6.02,6.02-11.77,10.89-19.61,12.57-4.47,1.42-8.5-1.28-10.23-5.09-2.17-5.58-1.37-11.24.58-16.51,5.67-14.83,16.15-25.4,30.32-33.41,8.98-5.14,22.97-6.69,32.79-1.6M146.91,521.67c0,62.54,16.6,132.99,46.21,190.79,53.51-49.92,193.89-208.36,210-226.77,24.48-28.02,35.05-10.18,48.2-25.85,7.04-8.59,11.15-11.86,14.25-13.59,5.05-3.01,10.8-10.18,13.68-12.3,2.88-2.17,9.38-10.8,14.43-15.14,5.09-4.29,15.05-10.8,25.18-19.39,10.09-8.67,27.26-28.77,45.98-28.77,22.26,0,31.56,15.09,33.55,16.91,1.59,1.73,15.31,13.85,17.53,16.15,2.43,2.74,17.13,14.34,25.09,14.34s13.72,8.63,17.97,12.92c9.43,8.58,48.37,49.52,61.16,58.2,5.71,3.94,11.11,3.23,15.36,6.55,4.38,3.23,6.55,5.31,9.03,6.06,2.39.66,10.76-1.46,20.49,10.71,4.52,3.1,5.71,3.63,5.71,3.63,0,0,13.23,11.99,17.97,20.44,4.29,7.3,102.94,138.35,138.26,185.22,32.75-59.39,51.47-127.64,51.47-200.22,0-229.74-186.24-415.76-415.84-415.76-229.61.13-415.67,186.23-415.67,415.84"/>
    <path id="path6" class="cls-1" d="M902.79,777.3v4.65h8.98v24.61h5.71v-24.61h8.94v-4.65h-23.63ZM956.69,777.3l-7.92,20.76-8.14-20.76h-8.19v29.26h5.31v-22.88h.13l8.85,22.88h3.94l8.68-22.88h.22v22.88h5.27v-29.26h-8.15Z"/>
  </g>
</svg>